HIERARCHY
ROOT Pelvis
{
	OFFSET 0.000000 0.000000 0.000000
	CHANNELS 6 Xposition Yposition Zposition Xrotation Yrotation Zrotation
	JOINT LeftUpLeg_virtual
	{
		OFFSET 0.000000 0.000000 0.000000
		CHANNELS 3 Xrotation Yrotation Zrotation
		JOINT LeftUpLeg
		{
			OFFSET 18.735201 -5.666702 -4.541200
			CHANNELS 3 Xrotation Yrotation Zrotation
			JOINT LeftLeg
			{
				OFFSET -0.021200 -31.938179 0.493100
				CHANNELS 3 Xrotation Yrotation Zrotation
				JOINT LeftFoot
				{
					OFFSET 0.021200 -31.938179 -4.336299
					CHANNELS 3 Xrotation Yrotation Zrotation
					JOINT LeftToeBase
					{
						OFFSET 0.943001 -26.722000 15.023500
						CHANNELS 3 Xrotation Yrotation Zrotation
						End Site
						{
							OFFSET 0 0 0
						}
					}
				}
			}
		}
	}
	JOINT RightUpLeg_virtual
	{
		OFFSET 0.000000 0.000000 0.000000
		CHANNELS 3 Xrotation Yrotation Zrotation
		JOINT RightUpLeg
		{
			OFFSET -18.735201 -5.666702 -4.541200
			CHANNELS 3 Xrotation Yrotation Zrotation
			JOINT RightLeg
			{
				OFFSET 0.018946 -31.938133 0.493100
				CHANNELS 3 Xrotation Yrotation Zrotation
				JOINT RightFoot
				{
					OFFSET -0.018946 -31.938126 -4.336299
					CHANNELS 3 Xrotation Yrotation Zrotation
					JOINT RightToeBase
					{
						OFFSET -0.943001 -26.722004 15.023500
						CHANNELS 3 Xrotation Yrotation Zrotation
						End Site
						{
							OFFSET 0 0 0
						}
					}
				}
			}
		}
	}
	JOINT Hips_virtual
	{
		OFFSET 0.000000 0.000000 0.000000
		CHANNELS 3 Xrotation Yrotation Zrotation
		JOINT Hips
		{
			OFFSET -0.000000 -0.000000 -0.000000
			CHANNELS 3 Xrotation Yrotation Zrotation
			JOINT Spine
			{
				OFFSET 0.000000 10.199997 -0.299500
				CHANNELS 3 Xrotation Yrotation Zrotation
				JOINT Spine1
				{
					OFFSET 0.000000 11.900002 -1.516600
					CHANNELS 3 Xrotation Yrotation Zrotation
					JOINT Spine2
					{
						OFFSET 0.000000 13.600006 -2.842500
						CHANNELS 3 Xrotation Yrotation Zrotation
						JOINT Neck_virtual
						{
							OFFSET 0.000000 0.000000 0.000000
							CHANNELS 3 Xrotation Yrotation Zrotation
							JOINT Neck
							{
								OFFSET 0.000000 9.624100 -2.890100
								CHANNELS 3 Xrotation Yrotation Zrotation
								JOINT Head
								{
									OFFSET 0.000000 14.068802 -1.351900
									CHANNELS 3 Xrotation Yrotation Zrotation
									End Site
									{
										OFFSET 0 0 0
									}
								}
							}
						}
						JOINT LeftShoulder_virtual
						{
							OFFSET 0.000000 0.000000 0.000000
							CHANNELS 3 Xrotation Yrotation Zrotation
							JOINT LeftShoulder
							{
								OFFSET 15.263000 10.923401 -0.547700
								CHANNELS 3 Xrotation Yrotation Zrotation
								JOINT LeftArm
								{
									OFFSET 25.438599 -2.830597 -13.032500
									CHANNELS 3 Xrotation Yrotation Zrotation
									JOINT LeftForeArm
									{
										OFFSET 29.960503 0.000000 0.000000
										CHANNELS 3 Xrotation Yrotation Zrotation
										JOINT LeftHand
										{
											OFFSET 27.849251 0.000000 0.000000
											CHANNELS 3 Xrotation Yrotation Zrotation
											End Site
											{
												OFFSET 0 0 0
											}
										}
									}
								}
							}
						}
						JOINT RightShoulder_virtual
						{
							OFFSET 0.000000 0.000000 0.000000
							CHANNELS 3 Xrotation Yrotation Zrotation
							JOINT RightShoulder
							{
								OFFSET -15.263000 10.923401 -0.547700
								CHANNELS 3 Xrotation Yrotation Zrotation
								JOINT RightArm
								{
									OFFSET -25.438599 -2.830597 -13.032500
									CHANNELS 3 Xrotation Yrotation Zrotation
									JOINT RightForeArm
									{
										OFFSET -29.960503 0.000000 0.000000
										CHANNELS 3 Xrotation Yrotation Zrotation
										JOINT RightHand
										{
											OFFSET -27.849251 0.000000 0.000000
											CHANNELS 3 Xrotation Yrotation Zrotation
											End Site
											{
												OFFSET 0 0 0
											}
										}
									}
								}
							}
						}
					}
				}
			}
		}
	}
}
MOTION
Frames: 13
Frame Time: 0.03333333
-0.434836 87.543625 -1.225235 0.000000 0.000000 0.000000 2.138431 -48.027869 3.625330 -46.905402 -2.370248 19.025039 37.258122 -3.903231 -5.093674 -13.359784 -0.739983 -15.365632 0.000000 0.000000 0.000000 14.720424 -62.251164 7.943303 -26.667039 -22.600138 -22.423933 39.632845 10.781307 -1.616627 -13.594503 7.425290 16.294632 0.000000 0.000000 0.000000 -1.081091 -38.277589 0.254759 0.141658 -49.420551 -4.335136 4.807011 -1.689685 -3.540705 2.194407 -0.522330 -2.862791 0.000000 0.000000 0.000000 -0.347792 0.524890 -0.399708 -1.614240 0.983910 0.445545 0.000000 0.000000 0.000000 4.072335 0.587341 1.205073 3.016106 -2.691669 7.997051 -25.937700 5.776395 -15.672089 -3.081887 -20.989888 6.428799 0.000000 0.000000 0.000000 -0.147404 -0.393347 -3.458923 0.878184 6.648165 -10.415374 -41.937235 46.810753 44.713342 -177.933723 69.661133 174.012238 0.000000 0.000000 0.000000 
-0.213383 86.855110 -0.757427 0.000000 0.000000 0.000000 1.482895 -48.082295 3.403662 -47.425610 -2.516144 19.000620 35.709472 -4.147402 -5.812158 -14.184904 -0.563331 -16.729220 0.000000 0.000000 0.000000 14.321920 -64.075405 7.280152 -27.547630 -22.863706 -23.364149 39.066165 11.972900 -2.217232 -13.753751 9.100427 16.008934 0.000000 0.000000 0.000000 -2.488249 -40.659283 -0.824680 1.206047 -49.790061 -3.365563 5.015842 -2.846627 -4.497765 2.449597 -0.795991 -3.116513 0.000000 0.000000 0.000000 -0.297091 0.250025 -0.890010 -1.731363 1.204619 0.364647 0.000000 0.000000 0.000000 4.024254 0.155657 1.035911 3.624501 -2.102806 9.018312 -27.223326 6.838774 -14.287775 -3.411407 -17.738080 6.074818 0.000000 0.000000 0.000000 -0.015171 -0.866238 -3.806878 1.373636 5.567129 -12.069502 -36.594330 52.464302 38.129166 -179.770196 65.818080 176.039452 0.000000 0.000000 0.000000 
0.260255 88.375534 -1.511387 0.000000 0.000000 0.000000 0.784866 -48.811042 3.948120 -48.830320 -3.099006 19.767611 35.320848 -4.742718 -6.155908 -14.680238 -0.866622 -17.649403 0.000000 0.000000 0.000000 15.136807 -65.221592 7.886573 -27.280216 -23.303840 -23.587580 37.484495 12.555517 -2.488650 -14.846255 9.827105 15.673228 0.000000 0.000000 0.000000 0.667317 -41.255084 2.327933 -2.353191 -48.137520 -1.531395 6.487790 -3.163448 -4.734823 2.450201 -0.951518 -2.743257 0.000000 0.000000 0.000000 0.415094 0.026742 -0.672507 -1.787781 1.256183 0.266498 0.000000 0.000000 0.000000 4.474270 0.272884 1.051313 3.959211 -3.031402 8.644123 -26.151227 8.146923 -15.388819 -3.410238 -13.165083 4.787388 0.000000 0.000000 0.000000 0.033260 -1.142728 -3.415480 1.672341 4.649422 -12.008050 -33.039281 55.415661 36.267492 179.380589 63.130523 176.453948 0.000000 0.000000 0.000000 
0.427510 87.423080 -0.909710 0.000000 0.000000 0.000000 0.305032 -45.947075 3.646444 -48.982627 -2.448259 19.937266 35.600790 -4.935613 -6.174938 -14.291106 -1.017870 -17.802197 0.000000 0.000000 0.000000 14.368645 -66.271208 6.235700 -27.572726 -23.087243 -24.837846 37.963776 13.275527 -2.384729 -14.599782 10.513052 16.378865 0.000000 0.000000 0.000000 -1.216160 -41.072540 0.621709 1.418834 -48.541396 -1.785349 5.316516 -3.360252 -4.353691 2.889017 -0.809700 -3.041554 0.000000 0.000000 0.000000 0.102989 0.007671 -0.424992 -1.643071 1.264113 0.393031 0.000000 0.000000 0.000000 4.410432 -0.122624 0.872212 3.653966 -2.337507 9.514277 -28.545765 9.096775 -13.609577 -3.561123 -13.404561 4.558048 0.000000 0.000000 0.000000 -0.316071 -1.268366 -3.263622 1.406262 3.353063 -11.140814 -32.959600 52.405019 35.649483 -178.950014 61.737356 175.299032 0.000000 0.000000 0.000000 
-0.577907 86.379448 0.000355 0.000000 0.000000 0.000000 2.143067 -44.348200 4.101575 -47.046797 -1.672690 19.978950 35.028174 -4.847909 -6.184668 -14.727636 -0.991104 -17.981781 0.000000 0.000000 0.000000 15.687408 -69.016548 8.037500 -28.450316 -24.081674 -25.110591 36.881109 13.608770 -2.649656 -15.190896 11.066079 15.952861 0.000000 0.000000 0.000000 -0.092494 -39.343283 1.354891 -3.030741 -49.431534 -3.435797 6.324916 -2.953651 -4.870975 2.703352 -0.867243 -2.837926 0.000000 0.000000 0.000000 0.976828 -0.128346 -0.662250 -1.398727 1.495657 0.384082 0.000000 0.000000 0.000000 4.986928 -0.506468 0.699476 3.959301 -2.831211 9.510466 -28.456895 8.059502 -13.004115 -3.191231 -11.972506 4.036043 0.000000 0.000000 0.000000 -0.539881 -1.461629 -2.922558 2.055065 3.773629 -11.299074 -29.487651 52.539301 31.847338 -177.855353 60.361824 174.582340 0.000000 0.000000 0.000000 
-1.208303 86.570740 -1.936188 0.000000 0.000000 0.000000 2.362513 -43.622762 5.250267 -47.596419 -1.906535 21.178412 34.028559 -4.806224 -5.967424 -15.308735 -0.921513 -17.897141 0.000000 0.000000 0.000000 18.432360 -69.110388 10.460421 -27.063397 -24.395592 -24.860758 37.717616 13.833869 -2.639785 -14.264146 11.528794 16.206874 0.000000 0.000000 0.000000 -3.102033 -45.367459 0.883176 -0.294510 -46.851225 -2.024056 5.166120 -2.792074 -4.780305 3.153978 -0.336710 -2.819680 0.000000 0.000000 0.000000 0.052285 0.152384 -0.579991 -1.141373 1.387202 0.478638 0.000000 0.000000 0.000000 4.411979 -0.315188 0.146802 4.355704 -4.150051 9.140182 -28.257234 10.464530 -12.571977 -2.401792 -9.328590 3.650221 0.000000 0.000000 0.000000 -0.884965 -1.234840 -2.777605 2.091577 4.453038 -11.498911 -36.024866 57.025215 35.117209 -178.263033 59.920771 175.461822 0.000000 0.000000 0.000000 
0.015954 86.595833 -0.253515 0.000000 0.000000 0.000000 3.352633 -44.238135 5.802128 -47.494810 -1.864842 21.603368 34.851013 -4.990352 -6.062822 -14.811398 -0.888294 -18.344228 0.000000 0.000000 0.000000 19.424537 -70.319222 12.756553 -28.008104 -24.651674 -24.086729 39.210470 13.751333 -2.413678 -13.235122 11.386608 16.702888 0.000000 0.000000 0.000000 -3.269345 -45.450237 0.964407 1.655061 -50.993994 -0.635772 3.831624 -1.752417 -5.007568 2.940389 -0.664706 -3.008888 0.000000 0.000000 0.000000 0.028738 0.043903 -0.401795 -0.941339 1.324893 0.581698 0.000000 0.000000 0.000000 4.209061 -0.256419 0.008366 4.467847 -5.729247 9.778125 -31.235131 11.524270 -10.381492 -3.018041 -6.581389 3.609031 0.000000 0.000000 0.000000 -0.746192 -1.337512 -2.582155 2.662742 3.884307 -10.627725 -35.639203 56.868988 33.889257 -177.463792 62.210469 175.122553 0.000000 0.000000 0.000000 
-1.401516 86.730835 -1.356148 0.000000 0.000000 0.000000 2.390233 -42.982739 6.215286 -48.086758 -2.202545 22.160438 33.900333 -4.855964 -6.028862 -15.600980 -0.676133 -18.288503 0.000000 0.000000 0.000000 19.939030 -71.249542 14.057486 -28.750271 -25.060265 -23.768918 37.668012 13.857198 -1.715448 -14.423058 11.023123 17.607845 0.000000 0.000000 0.000000 -5.035852 -48.810253 -0.301928 1.582803 -44.465320 -3.303069 4.567891 -1.798226 -4.030493 2.735764 -0.664491 -2.825734 0.000000 0.000000 0.000000 0.688696 -0.093052 -0.201640 -0.685788 1.306845 0.722029 0.000000 0.000000 0.000000 5.212549 -0.507315 0.191551 5.057294 -5.101826 11.326728 -33.434671 10.536117 -9.556732 -3.778069 -8.467852 3.439641 0.000000 0.000000 0.000000 -0.035017 -1.407974 -2.325386 2.874692 3.469670 -9.748088 -34.609183 54.831997 30.381207 -176.733809 61.602186 173.683897 0.000000 0.000000 0.000000 
-1.175969 86.906525 -1.686548 0.000000 0.000000 0.000000 1.435520 -42.008273 4.725934 -48.549627 -1.593339 21.253489 34.445580 -4.514014 -5.970186 -15.273288 -0.453426 -18.149126 0.000000 0.000000 0.000000 20.656632 -72.251913 14.726455 -28.943272 -25.487874 -24.269117 37.071815 13.616126 -1.782565 -14.977855 10.707514 17.207415 0.000000 0.000000 0.000000 -4.245364 -47.577773 0.750350 0.621116 -42.897044 -3.952003 4.913131 -2.188687 -4.295287 3.086526 -0.805267 -2.757610 0.000000 0.000000 0.000000 -0.121890 -0.088636 -0.123766 -0.922444 1.232550 0.744721 0.000000 0.000000 0.000000 5.071082 -0.460925 0.058192 5.184797 -5.742359 11.192659 -35.066441 10.438448 -8.804958 -4.016493 -6.856100 3.286310 0.000000 0.000000 0.000000 -0.088687 -1.690781 -2.161315 3.286418 3.003340 -9.581727 -35.885930 56.225762 32.147805 -176.308534 62.062562 173.716299 0.000000 0.000000 0.000000 
-1.183371 86.728386 -2.313551 0.000000 0.000000 0.000000 1.253938 -41.756502 4.608360 -48.979259 -1.504871 21.334536 34.734203 -4.381265 -5.824164 -14.789171 -0.420614 -17.947681 0.000000 0.000000 0.000000 20.110223 -72.675556 14.461973 -29.120580 -25.604077 -24.381028 36.884026 13.442391 -1.733119 -15.085364 10.498806 17.112911 0.000000 0.000000 0.000000 -4.523397 -47.733351 1.077157 0.883356 -40.689295 -3.861552 4.768208 -2.345060 -4.168495 2.912721 -0.879729 -2.672556 0.000000 0.000000 0.000000 -0.412780 -0.069546 -0.061833 -0.938186 1.264735 0.702764 0.000000 0.000000 0.000000 5.043036 -0.684016 0.117218 5.275592 -6.231801 10.696831 -36.147960 10.210941 -8.716027 -4.468838 -7.793719 2.845122 0.000000 0.000000 0.000000 0.150953 -1.651122 -1.801828 3.377497 3.157116 -9.243433 -39.007043 55.800064 35.376039 -175.663818 61.225679 173.415102 0.000000 0.000000 0.000000 
-1.143084 86.531624 -2.713200 0.000000 0.000000 0.000000 0.627170 -40.655758 3.909417 -49.503435 -1.097266 21.071485 34.178383 -4.276775 -5.822241 -15.062471 -0.314514 -18.007177 0.000000 0.000000 0.000000 17.159040 -72.099702 11.213046 -29.715674 -24.989384 -25.466029 36.475993 13.142194 -2.170237 -15.461455 10.369187 16.106812 0.000000 0.000000 0.000000 -4.953318 -46.526969 0.824780 0.677927 -40.401050 -4.672638 5.142845 -2.352497 -4.527910 2.980141 -0.826866 -2.708722 0.000000 0.000000 0.000000 -0.592300 -0.072931 0.006983 -0.882901 1.232000 0.789619 0.000000 0.000000 0.000000 4.975509 -0.774997 0.108041 5.148394 -6.466353 10.478694 -38.058774 9.160523 -9.229921 -4.671685 -9.938538 2.802242 0.000000 0.000000 0.000000 0.045662 -1.624290 -1.906369 3.659702 3.148706 -9.266318 -38.560434 56.240467 34.655304 -175.751750 61.637949 173.436822 0.000000 0.000000 0.000000 
-1.528309 86.300232 -1.316845 0.000000 0.000000 0.000000 0.364764 -39.854328 4.167012 -49.774174 -1.132453 21.409614 34.727287 -4.244640 -5.779788 -14.777082 -0.324326 -18.254061 0.000000 0.000000 0.000000 15.907196 -72.298816 10.127500 -30.563362 -24.792123 -26.242077 35.687595 13.112915 -2.023938 -16.037755 10.202083 16.193714 0.000000 0.000000 0.000000 -5.284241 -47.232165 1.197657 0.561362 -36.220220 -5.216159 4.748528 -2.255231 -4.415667 2.719280 -0.854420 -2.681597 0.000000 0.000000 0.000000 -0.744809 -0.010930 -0.023363 -0.966509 1.179490 0.770189 0.000000 0.000000 0.000000 5.287014 -0.706420 0.193622 5.301060 -6.871017 10.358140 -36.625353 8.965745 -9.614161 -4.536711 -10.328146 2.655247 0.000000 0.000000 0.000000 0.279911 -1.454815 -2.030609 3.683602 3.630808 -10.003353 -40.762900 55.734241 35.922482 -175.448626 61.612008 172.973899 0.000000 0.000000 0.000000 
-1.662551 86.414459 -2.092030 0.000000 0.000000 0.000000 0.235751 -39.287528 4.668693 -49.894197 -1.313639 21.842089 34.251917 -4.104228 -5.708351 -15.062637 -0.169964 -18.361657 0.000000 0.000000 0.000000 15.945500 -73.351287 10.255371 -30.929648 -24.968965 -26.924233 34.942155 12.600931 -1.905105 -16.416713 9.634851 15.913871 0.000000 0.000000 0.000000 -6.279959 -46.538908 0.828593 -0.156054 -36.235380 -6.847756 5.191105 -2.044446 -4.575184 2.940144 -0.851346 -2.747994 0.000000 0.000000 0.000000 -0.588355 0.026773 -0.049425 -0.742479 1.124156 0.773050 0.000000 0.000000 0.000000 5.367463 -0.596837 0.251868 5.358454 -7.136981 10.487309 -35.848750 8.473143 -9.964691 -3.968494 -10.381134 2.734777 0.000000 0.000000 0.000000 0.406741 -1.458810 -2.097952 4.093709 3.737885 -10.143241 -43.366049 55.636610 37.836444 -174.791398 62.345905 172.221758 0.000000 0.000000 0.000000 
